# Alias OBJ Model File
# Exported from SketchUp, (c) 2000-2012 Trimble Navigation Limited
# File units = meters

mtllib drum_bottom.mtl

g Mesh1 drum_bottom1 drum_bottom_1_1 Model

usemtl Aluminum
v -0.193103 0 0.0627428
vt -0.0439129 0.120113
vn -0.6091 -0.658147 0.442537
v -0.133665 0.03 0.183974
vt 0.0491825 0.145659
v -0.216275 0.03 0.0702719
vt -0.0491825 0.145659
f 1/1/1 2/2/1 3/3/1

v -0.119344 0 0.164263
vt 0.0439129 0.120113
f 2/2/1 1/1/1 4/4/1

vn -0.232656 -0.658147 0.71604
v 1.06031e-17 0.03 0.227405
f 4/1/2 5/2/2 2/3/2

v 1.06031e-17 0 0.20304
f 5/2/2 4/1/2 6/4/2

vn 0.232656 -0.658147 0.71604
v 0.133665 0.03 0.183974
f 6/1/3 7/2/3 5/3/3

v 0.119344 0 0.164263
f 7/2/3 6/1/3 8/4/3

v 0.193103 0 0.0627428
vn 0.6091 -0.658147 0.442537
f 9/4/4 7/3/4 8/1/4

v 0.216275 0.03 0.0702719
f 7/3/4 9/4/4 10/2/4

vn 0.752889 -0.658147 -6.04029e-18
v 0.216275 0.03 -0.0702719
f 9/1/5 11/2/5 10/3/5

v 0.193103 0 -0.0627428
f 11/2/5 9/1/5 12/4/5

vn 0.6091 -0.658147 -0.442537
v 0.133665 0.03 -0.183974
f 12/1/6 13/2/6 11/3/6

v 0.119344 0 -0.164263
f 13/2/6 12/1/6 14/4/6

vn 0.232656 -0.658147 -0.71604
v 4.24123e-17 0.03 -0.227405
f 14/1/7 15/2/7 13/3/7

v 4.24123e-17 0 -0.20304
f 15/2/7 14/1/7 16/4/7

vn -0.232656 -0.658147 -0.71604
v -0.133665 0.03 -0.183974
f 16/1/8 17/2/8 15/3/8

v -0.119344 0 -0.164263
f 17/2/8 16/1/8 18/4/8

v -0.193103 0 -0.0627428
vn -0.6091 -0.658147 -0.442537
f 19/4/9 17/3/9 18/1/9

v -0.216275 0.03 -0.0702719
f 17/3/9 19/4/9 20/2/9

vn -0.752889 -0.658147 -0
f 1/4/10 20/3/10 19/1/10

f 20/3/10 1/4/10 3/2/10

vt 0.0491825 0.0641447
vn -1 0 -0
v -0.216275 0.06 -0.0702719
vt -0.0491825 0.0838816
vt -0.0491825 0.0641447
f 3/5/11 21/6/11 20/7/11

v -0.216275 0.06 0.0702719
vt 0.0491825 0.0838816
f 21/6/11 3/5/11 22/8/11

vn -0.809017 0 0.587785
f 2/5/12 22/6/12 3/7/12

v -0.133665 0.06 0.183974
f 22/6/12 2/5/12 23/8/12

vn -0.309017 0 0.951057
v 1.06031e-17 0.06 0.227405
f 2/7/13 24/8/13 23/6/13

f 24/8/13 2/7/13 5/5/13

vn 0.309017 0 0.951057
v 0.133665 0.06 0.183974
f 5/7/14 25/8/14 24/6/14

f 25/8/14 5/7/14 7/5/14

vn 0.809017 0 0.587785
f 10/5/15 25/6/15 7/7/15

v 0.216275 0.06 0.0702719
f 25/6/15 10/5/15 26/8/15

vn 1 0 -0
f 11/5/16 26/6/16 10/7/16

v 0.216275 0.06 -0.0702719
f 26/6/16 11/5/16 27/8/16

vn 0.809017 0 -0.587785
f 13/5/17 27/6/17 11/7/17

v 0.133665 0.06 -0.183974
f 27/6/17 13/5/17 28/8/17

vn 0.309017 0 -0.951057
v 4.24123e-17 0.06 -0.227405
f 13/7/18 29/8/18 28/6/18

f 29/8/18 13/7/18 15/5/18

vn -0.309017 0 -0.951057
v -0.133665 0.06 -0.183974
f 15/7/19 30/8/19 29/6/19

f 30/8/19 15/7/19 17/5/19

vn -0.809017 0 -0.587785
f 20/5/20 30/6/20 17/7/20

f 30/6/20 20/5/20 21/8/20

v -0.193103 0.09 -0.0627428
vt 0.0439129 -0.00574533
vn -0.6091 0.658147 -0.442537
vt -0.0491825 -0.0312907
vt 0.0491825 -0.0312907
f 31/9/21 30/10/21 21/11/21

v -0.119344 0.09 -0.164263
vt -0.0439129 -0.00574533
f 30/10/21 31/9/21 32/12/21

usemtl Metal_Rough
vt 0.333738 0.7875
vn -0.809017 -2.07375e-16 -0.587785
v -0.119344 0.315 -0.164263
vt -0.333738 1.9125
vt -0.333738 0.7875
f 31/13/22 33/14/22 32/15/22

v -0.193103 0.315 -0.0627428
vt 0.333738 1.9125
f 33/14/22 31/13/22 34/16/22

v -0.193103 0.09 0.0627428
vn -1 -7.9999e-16 3.87682e-32
f 35/13/23 34/14/23 31/15/23

v -0.193103 0.315 0.0627428
f 34/14/23 35/13/23 36/16/23

v -0.119344 0.09 0.164263
vn -0.809017 -5.65773e-16 0.587785
f 37/13/24 36/14/24 35/15/24

v -0.119344 0.315 0.164263
f 36/14/24 37/13/24 38/16/24

vn -0.309017 2.90189e-17 0.951057
v -6.36184e-17 0.315 0.20304
f 37/15/25 39/16/25 38/14/25

v 4.24123e-17 0.09 0.20304
f 39/16/25 37/15/25 40/13/25

usemtl Aluminum
vn -0.232656 0.658147 0.71604
f 23/10/26 40/9/26 37/12/26

f 40/9/26 23/10/26 24/11/26

vn 0.232656 0.658147 0.71604
v 0.119344 0.09 0.164263
f 24/10/27 41/9/27 40/12/27

f 41/9/27 24/10/27 25/11/27

vn 0.6091 0.658147 0.442537
v 0.193103 0.09 0.0627428
f 25/10/28 42/9/28 41/12/28

f 42/9/28 25/10/28 26/11/28

vn 0.752889 0.658147 1.08171e-17
f 27/11/29 42/12/29 26/10/29

v 0.193103 0.09 -0.0627428
f 42/12/29 27/11/29 43/9/29

vn 0.6091 0.658147 -0.442537
f 28/11/30 43/12/30 27/10/30

v 0.119344 0.09 -0.164263
f 43/12/30 28/11/30 44/9/30

vn 0.232656 0.658147 -0.71604
v 4.24123e-17 0.09 -0.20304
f 28/10/31 45/9/31 44/12/31

f 45/9/31 28/10/31 29/11/31

vn -0.232656 0.658147 -0.71604
f 29/10/32 32/9/32 45/12/32

f 32/9/32 29/10/32 30/11/32

usemtl Metal_Rough
vn -0.309017 3.96828e-16 -0.951057
f 33/16/33 45/15/33 32/13/33

v -3.18092e-17 0.315 -0.20304
f 45/15/33 33/16/33 46/14/33

vn 0.309017 6.77013e-16 -0.951057
f 46/16/34 44/15/34 45/13/34

v 0.119344 0.315 -0.164263
f 44/15/34 46/16/34 47/14/34

vn 0.809017 3.673e-16 -0.587785
f 47/16/35 43/15/35 44/13/35

v 0.193103 0.315 -0.0627428
f 43/15/35 47/16/35 48/14/35

f 48/16/16 42/15/16 43/13/16

v 0.193103 0.315 0.0627428
f 42/15/16 48/16/16 49/14/16

v 0.119344 0.315 0.164263
vn 0.809017 -2.0103e-16 0.587785
f 50/14/36 42/13/36 49/16/36

f 42/13/36 50/14/36 41/15/36

vn 0.309017 1.61023e-16 0.951057
f 50/16/37 40/15/37 41/13/37

f 40/15/37 50/16/37 39/14/37

usemtl Aluminum
vn -0.6091 0.658147 0.442537
f 35/12/38 23/11/38 37/9/38

f 23/11/38 35/12/38 22/10/38

vn -0.752889 0.658147 1.31152e-18
f 35/9/39 21/10/39 22/11/39

f 21/10/39 35/9/39 31/12/39

