# Alias OBJ Model File
# Exported from SketchUp, (c) 2000-2012 Trimble Navigation Limited
# File units = meters

mtllib pad1.mtl

g Mesh1 L_1_1 Model

usemtl M_0120_Orchid
v -0.0620286 0.008 -0.0803789
vt -0.109209 0.734912
vn 0 -1 -0
v -0.0628783 0.008 0.0795279
vt -0.105668 0.0686336
v -0.0628783 0.008 -0.0757699
vt -0.105668 0.715708
f 1/1/1 2/2/1 3/3/1

v -0.061669 0.008 0.0858356
vt -0.110707 0.0423516
f 2/2/1 1/1/1 4/4/1

v -0.0594794 0.008 -0.0842683
vt -0.11983 0.751118
f 4/4/1 1/1/1 5/5/1

vt -0.674519 0
vn -0.9282 0 -0.372081
v -0.0594794 0.016 -0.0842683
vt -0.693896 0.0333333
vn -0.717426 0 -0.696634
vt -0.693896 0
f 1/6/2 6/7/3 5/8/3

v -0.0620286 0.016 -0.0803789
vt -0.674519 0.0333333
f 6/7/3 1/6/2 7/9/2

vt -0.723005 0
vn -0.995848 0 -0.091033
vt -0.742532 0.0333333
vt -0.742532 0
f 3/10/4 7/11/2 1/12/2

v -0.0628783 0.016 -0.0757699
vt -0.723005 0.0333333
f 7/11/2 3/10/4 8/13/4

vt -0.0686336 0
vn -0.995519 0 0.0945667
vt -0.715708 0.0333333
vt -0.715708 0
f 2/14/5 8/15/4 3/16/4

v -0.0628783 0.016 0.0795279
vt -0.0686336 0.0333333
f 8/15/4 2/14/5 9/17/5

vt -0.0207496 0
vn -0.923521 0 0.383547
vt -0.0475103 0.0333333
vt -0.0475103 0
f 4/18/6 9/19/5 2/20/5

v -0.061669 0.016 0.0858356
vt -0.0207496 0.0333333
f 9/19/5 4/18/6 10/21/6

v -0.0580412 0.008 0.0911629
vt 0.054163 0
vn -0.707107 0 0.707107
vt 0.0273078 0.0333333
vt 0.0273078 0
f 11/22/7 10/23/6 4/24/6

v -0.0580412 0.016 0.0911629
vt 0.054163 0.0333333
f 10/23/6 11/22/7 12/25/7

vt 0.092654 0
v -0.0527139 0.016 0.0947907
vt 0.119509 0.0333333
vn -0.383547 0 0.923521
vt 0.092654 0.0333333
f 11/26/7 13/27/8 12/28/7

v -0.0527139 0.008 0.0947907
vt 0.119509 0
f 13/27/8 11/26/7 14/29/8

vt -0.125823 0.0201546
v -0.0556885 0.008 -0.0869155
vt -0.135626 0.762148
vt -0.14802 0.00503865
f 11/30/1 15/31/1 14/32/1

f 11/30/1 5/5/1 15/31/1

f 4/4/1 5/5/1 11/30/1

vt -0.528283 0.0333333
vt -0.547549 0
vn -0.389477 0 -0.921036
vt -0.528283 0
f 6/33/3 15/34/9 5/35/3

v -0.0556885 0.016 -0.0869155
vt -0.547549 0.0333333
f 15/34/9 6/33/3 16/36/9

vt 0.11983 0.751118
vn 0 1 -0
vt 0.125823 0.0201546
vt 0.135626 0.762148
f 6/37/10 12/38/10 16/39/10

vt 0.110707 0.0423516
f 6/37/10 10/40/10 12/38/10

vt 0.109209 0.734912
f 7/41/10 10/40/10 6/37/10

vt 0.105668 0.715708
f 8/42/10 10/40/10 7/41/10

vt 0.105668 0.0686336
f 10/40/10 8/42/10 9/43/10

vt 0.14802 0.00503865
f 16/39/10 12/38/10 13/44/10

v -0.0511137 0.016 -0.0877979
vt 0.154688 0.765824
f 16/39/10 13/44/10 17/45/10

v -0.0464063 0.016 0.096
vt 0.174302 0
f 17/45/10 13/44/10 18/46/10

vt 0.144424 0
vt 0.171184 0.0333333
vn -0.0945667 0 0.995519
vt 0.144424 0.0333333
f 14/47/8 18/48/11 13/49/8

v -0.0464063 0.008 0.096
vt 0.171184 0
f 18/48/11 14/47/8 19/50/11

v -0.0511137 0.008 -0.0877979
vt -0.154688 0.765824
vt -0.174302 0
f 14/32/1 20/51/1 19/52/1

f 14/32/1 15/31/1 20/51/1

vt -0.277515 0.0333333
vt -0.296928 0
vn -0.000689309 0 -1
vt -0.277515 0
f 16/53/9 20/54/12 15/55/9

vt -0.296928 0.0333333
f 20/54/12 16/53/9 17/56/12

vt -0.00792454 0.0333333
v -0.0465047 0.008 -0.0869155
vt -0.0274773 0
vn 0.383314 0 -0.923618
vt -0.00792454 0
f 17/57/12 21/58/13 20/59/12

v -0.0465047 0.016 -0.0869155
vt -0.0274773 0.0333333
f 21/58/13 17/57/12 22/60/13

vt 0.173891 0.762148
f 17/45/10 18/46/10 22/61/10

v -0.0426154 0.016 -0.0842683
vt 0.190097 0.751118
f 22/61/10 18/46/10 23/62/10

v -0.0390858 0.016 0.0722074
vt 0.204804 0.0991356
f 23/62/10 18/46/10 24/63/10

v 0.0464062 0.016 0.096
vt 0.561021 0
f 24/63/10 18/46/10 25/64/10

vt 0.561021 0.0333333
vn 0.0910618 0 0.995845
vt 0.174302 0.0333333
f 19/46/11 25/65/14 18/66/11

v 0.0464062 0.008 0.096
f 25/65/14 19/46/11 26/64/14

v -0.0390858 0.008 0.0722074
vt -0.204804 0.0991356
vt -0.561021 0
f 19/52/1 27/67/1 26/68/1

v -0.0426154 0.008 -0.0842683
vt -0.190097 0.751118
f 19/52/1 28/69/1 27/67/1

vt -0.173891 0.762148
f 19/52/1 21/70/1 28/69/1

f 19/52/1 20/51/1 21/70/1

vt 0.285077 0.0333333
vt 0.265473 0
vn 0.707107 0 -0.707107
vt 0.285077 0
f 22/71/13 28/72/15 21/73/13

vt 0.265473 0.0333333
f 28/72/15 22/71/13 23/74/15

v -0.0399682 0.016 -0.0803789
vt 0.494377 0.0333333
vn 0.923618 0 -0.383314
vt 0.51398 0
vt 0.51398 0.0333333
f 29/75/16 28/76/15 23/77/15

v -0.0399682 0.008 -0.0803789
vt 0.494377 0
f 28/76/15 29/75/16 30/78/16

v -0.0390858 0.016 -0.0757699
vt 0.66443 0.0333333
vn 0.99553 0 -0.0944408
vt 0.683983 0
vt 0.683983 0.0333333
f 31/79/17 30/80/16 29/81/16

v -0.0390858 0.008 -0.0757699
vt 0.66443 0
f 30/80/16 31/79/17 32/82/17

vt 0.0991356 0.0333333
vn 1 0 -0
vt 0.715708 0
vt 0.715708 0.0333333
f 24/83/18 32/84/17 31/85/17

vt 0.0991356 0
f 32/84/17 24/83/18 27/86/18

vt -0.204804 0.0333333
vn 0 0 -1
v 0.0464062 0.008 0.0722074
vt -0.204804 0
f 24/87/19 33/68/19 27/88/19

v 0.0464062 0.016 0.0722074
vt -0.561021 0.0333333
f 33/68/19 24/87/19 34/89/19

vt 0.561021 0.0991356
f 24/63/10 25/64/10 34/90/10

v 0.0510137 0.016 0.0951503
vt 0.580218 0.00354056
f 34/90/10 25/64/10 35/91/10

vt 0.551716 0
vt 0.571238 0.0333333
vn 0.372135 0 0.928179
vt 0.551716 0.0333333
f 26/92/14 35/93/20 25/94/14

v 0.0510137 0.008 0.0951503
vt 0.571238 0
f 35/93/20 26/92/14 36/95/20

v 0.0510137 0.008 0.0730898
vt -0.580218 0.095459
vt -0.580218 0.00354056
f 26/68/1 37/96/1 36/97/1

vt -0.561021 0.0991356
f 26/68/1 33/98/1 37/96/1

f 26/68/1 27/67/1 33/98/1

vt -0.53236 0.0333333
vn 0.188096 0 -0.982151
vt -0.551906 0
vn 0.38337 0 -0.923595
vt -0.53236 0
f 34/99/21 37/100/22 33/101/21

v 0.0510137 0.016 0.0730898
vt -0.551906 0.0333333
f 37/100/22 34/99/21 38/102/22

vt 0.580218 0.095459
f 34/90/10 35/91/10 38/103/10

v 0.0549026 0.016 0.0926011
vt 0.596422 0.0141622
f 38/103/10 35/91/10 39/104/10

vt 0.487196 0
vt 0.506571 0.0333333
vn 0.696655 0 0.717406
vt 0.487196 0.0333333
f 36/105/20 39/106/23 35/107/20

v 0.0549026 0.008 0.0926011
vt 0.506571 0
f 39/106/23 36/105/20 40/108/23

v 0.0549026 0.008 0.075737
vt -0.596422 0.084429
vt -0.596422 0.0141622
f 36/97/1 41/109/1 40/110/1

f 36/97/1 37/96/1 41/109/1

vt -0.425924 0.0333333
vt -0.445526 0
vn 0.707128 0 -0.707086
vt -0.425924 0
f 38/111/22 41/112/24 37/113/22

v 0.0549026 0.016 0.075737
vt -0.445526 0.0333333
f 41/112/24 38/111/22 42/114/24

vt 0.596422 0.084429
f 38/103/10 39/104/10 42/115/10

v 0.0575498 0.016 0.0888102
vt 0.607452 0.0299576
f 42/115/10 39/104/10 43/116/10

vt 0.35308 0.0333333
v 0.0575498 0.008 0.0888102
vt 0.372345 0
vn 0.921036 0 0.389477
vt 0.372345 0.0333333
f 39/117/23 44/118/25 43/119/25

vt 0.35308 0
f 44/118/25 39/117/23 40/120/23

v 0.0575498 0.008 0.0796264
vt -0.607452 0.0682233
vt -0.607452 0.0299576
f 40/110/1 45/121/1 44/122/1

f 40/110/1 41/109/1 45/121/1

vt -0.265787 0
v 0.0575498 0.016 0.0796264
vt -0.28539 0.0333333
vt -0.28539 0
f 41/123/24 46/124/16 45/125/16

vt -0.265787 0.0333333
f 46/124/16 41/123/24 42/126/24

vt 0.607452 0.0682233
f 42/115/10 43/116/10 46/127/10

v 0.0584322 0.016 0.0842354
vt 0.611129 0.0490193
f 46/127/10 43/116/10 47/128/10

vt 0.144462 0.0333333
v 0.0584322 0.008 0.0842354
vt 0.163875 0
vn 1 0 0.000689309
vt 0.163875 0.0333333
f 43/129/25 48/130/26 47/131/26

vt 0.144462 0
f 48/130/26 43/129/25 44/132/25

vt -0.611129 0.0490193
f 44/122/1 45/121/1 48/133/1

vt -0.0472174 0
vt -0.0667702 0.0333333
vt -0.0667702 0
f 45/134/16 47/135/26 48/136/26

vt -0.0472174 0.0333333
f 47/135/26 45/134/16 46/137/16

vt -0.201127 0.734912
vt -0.204804 0.715708
f 27/67/1 30/138/1 32/139/1

f 27/67/1 28/69/1 30/138/1

vt 0.204804 0.715708
vt 0.201127 0.734912
f 31/140/10 29/141/10 24/63/10

f 23/62/10 24/63/10 29/141/10

g Mesh2 Model

usemtl M_0097_DeepSkyBlue
v -0.0846411 0.008 -0.116498
vt 0.148328 0.0266667
vn -0.309017 0 -0.951057
v 0 0 -0.144
vt -0.148328 0
v -0.0846411 0 -0.116498
vt 0.148328 0
f 49/142/27 50/143/27 51/144/27

v 0 0.008 -0.144
vt -0.148328 0.0266667
f 50/143/27 49/142/27 52/145/27

vt -0.282137 0.388328
v -2.25597e-17 0.008 0.144
vt -7.51991e-17 -0.48
vt 0 0.48
f 49/146/10 53/147/10 52/148/10

v -0.0846411 0.008 0.116498
vt -0.282137 -0.388328
f 49/146/10 54/149/10 53/147/10

v -0.136952 0.008 -0.0444984
vt -0.456507 0.148328
f 55/150/10 54/149/10 49/146/10

v -0.136952 0.008 0.0444984
vt -0.456507 -0.148328
f 54/149/10 55/150/10 56/151/10

vn -1 0 -0
v -0.136952 0 0.0444984
f 55/145/28 57/144/28 56/142/28

v -0.136952 0 -0.0444984
f 57/144/28 55/145/28 58/143/28

vn -0.809017 0 -0.587785
f 49/145/29 58/144/29 55/142/29

f 58/144/29 49/145/29 51/143/29

vt 0.282137 0.388328
vt 0.456507 -0.148328
vt 0.456507 0.148328
f 51/152/1 57/153/1 58/154/1

v -0.0846411 0 0.116498
vt 0.282137 -0.388328
f 57/153/1 51/152/1 59/155/1

v -2.25597e-17 0 0.144
vt 7.51991e-17 -0.48
f 59/155/1 51/152/1 60/156/1

f 60/156/1 51/152/1 50/148/1

v 0.0846411 0 0.116498
f 60/156/1 50/148/1 61/149/1

v 0.0846411 0 -0.116498
f 61/149/1 50/148/1 62/146/1

vn 0.309017 0 -0.951057
f 52/142/30 62/143/30 50/144/30

v 0.0846411 0.008 -0.116498
f 62/143/30 52/142/30 63/145/30

v 0.0846411 0.008 0.116498
f 52/148/10 64/155/10 63/152/10

f 52/148/10 53/147/10 64/155/10

vn 0.309017 0 0.951057
f 60/143/31 64/142/31 53/145/31

f 64/142/31 60/143/31 61/144/31

v 0.136952 0 0.0444984
vn 0.809017 0 0.587785
f 65/144/32 64/145/32 61/143/32

v 0.136952 0.008 0.0444984
f 64/145/32 65/144/32 66/142/32

v 0.136952 0 -0.0444984
f 67/144/18 66/145/18 65/143/18

v 0.136952 0.008 -0.0444984
f 66/145/18 67/144/18 68/142/18

vn 0.809017 0 -0.587785
f 62/144/33 68/145/33 67/143/33

f 68/145/33 62/144/33 63/142/33

f 63/152/10 66/153/10 68/154/10

f 63/152/10 64/155/10 66/153/10

f 65/151/1 62/146/1 67/150/1

f 61/149/1 62/146/1 65/151/1

vn -0.309017 0 0.951057
f 53/142/34 59/143/34 60/144/34

f 59/143/34 53/142/34 54/145/34

vn -0.809017 0 0.587785
f 56/145/35 59/144/35 54/142/35

f 59/144/35 56/145/35 57/143/35

