# Alias OBJ Model File
# Exported from SketchUp, (c) 2000-2012 Trimble Navigation Limited
# File units = meters

mtllib pad3.mtl

g Mesh1 V1 Model

usemtl M_0120_Orchid
v -0.0813102 0.008 -0.0857055
vt -0.0392163 0.757106
vn 0 -1 -0
v -0.0836629 0.008 -0.0726323
vt -0.0294132 0.702635
v -0.0844468 0.008 -0.078385
vt -0.0261469 0.726604
f 1/1/1 2/2/1 3/3/1

v -0.0190851 0.008 0.0839741
vt -0.298487 0.050108
f 2/2/1 1/1/1 4/4/1

v -0.0777808 0.008 -0.0882547
vt -0.0539218 0.767728
f 4/4/1 1/1/1 5/5/1

v -0.0813102 0.016 -0.0857055
vt -0.475096 0.0333333
vn -0.585526 0 -0.810654
vt -0.493237 0
vn -0.398599 0 -0.917125
vt -0.475096 0
f 6/6/2 5/7/3 1/8/2

v -0.0777808 0.016 -0.0882547
vt -0.493237 0.0333333
f 5/7/3 6/6/2 7/9/3

vt 0.0392163 0.757106
vn 0 1 -0
v -0.0190851 0.016 0.0839741
vt 0.298487 0.050108
vt 0.0539218 0.767728
f 6/10/4 8/11/4 7/12/4

v -0.0836629 0.016 -0.0726323
vt 0.0294132 0.702635
f 6/10/4 9/13/4 8/11/4

v -0.0844468 0.016 -0.078385
vt 0.0261469 0.726604
f 9/13/4 6/10/4 10/14/4

vt -0.71136 0.0333333
vn -0.919177 0 -0.393844
vt -0.678176 0
vt -0.678176 0.0333333
f 6/15/5 3/16/5 10/17/5

vt -0.71136 0
f 3/16/5 6/15/5 1/18/5

vt -0.692229 0
vn -0.965543 0 0.260243
vt -0.71642 0.0333333
vn -0.990843 0 0.135021
vt -0.71642 0
f 2/19/6 10/20/7 3/21/7

vt -0.692229 0.0333333
f 10/20/7 2/19/6 9/22/6

vt 0.0674647 0
vn -0.868588 0 0.495535
vt -0.638362 0.0333333
vt -0.638362 0
f 4/23/8 9/24/6 2/25/6

vt 0.0674647 0.0333333
f 9/24/6 4/23/8 8/26/8

v -0.0122882 0.008 0.0929935
vt 0.186678 0
vn -0.798626 0 0.601828
vt 0.139621 0.0333333
vt 0.139621 0
f 11/27/9 8/28/8 4/29/8

v -0.0122882 0.016 0.0929935
vt 0.186678 0.0333333
f 8/28/8 11/27/9 12/30/9

vt 0.307499 0
vn -0.304287 0 0.95258
v -0.00287633 0.016 0.096
vt 0.348667 0.0333333
vn -0.15398 0 0.988074
vt 0.307499 0.0333333
f 11/31/10 13/32/11 12/33/10

v -0.00287633 0.008 0.096
vt 0.348667 0
f 13/32/11 11/31/10 14/34/11

vt -0.326808 0.012527
v -2.77556e-17 0.008 0.0722094
vt -0.378009 0.0991273
vt -0.366024 0
f 11/35/1 15/36/1 14/37/1

f 4/4/1 15/36/1 11/35/1

v -0.0614402 0.008 -0.080998
vt -0.122008 0.737492
f 4/4/1 16/38/1 15/36/1

v -0.0661461 0.008 -0.0870778
vt -0.1024 0.762824
f 4/4/1 17/39/1 16/38/1

v -0.0734661 0.008 -0.0891044
vt -0.0718999 0.771268
f 4/4/1 18/40/1 17/39/1

f 4/4/1 5/5/1 18/40/1

vt -0.201251 0.0333333
vt -0.219574 0
vn 0.0378129 0 -0.999285
vt -0.201251 0
f 7/41/3 18/42/12 5/43/3

v -0.0734661 0.016 -0.0891044
vt -0.219574 0.0333333
f 18/42/12 7/41/3 19/44/12

vt 0.0718999 0.771268
f 7/12/4 8/11/4 19/45/4

v -0.0661461 0.016 -0.0870778
vt 0.1024 0.762824
f 19/45/4 8/11/4 20/46/4

v -0.0614402 0.016 -0.080998
vt 0.122008 0.737492
f 20/46/4 8/11/4 21/47/4

v -2.77556e-17 0.016 0.0722094
vt 0.378009 0.0991273
f 21/47/4 8/11/4 22/48/4

vt 0.326808 0.012527
f 22/48/4 8/11/4 12/49/4

vt 0.366024 0
f 22/48/4 12/49/4 13/50/4

v 0.00287633 0.016 0.096
vt 0.389993 0
f 22/48/4 13/50/4 23/51/4

vt 0.389993 0.0333333
vn 0.15398 0 0.988074
vt 0.366024 0.0333333
f 14/50/11 23/52/13 13/53/11

v 0.00287633 0.008 0.096
f 23/52/13 14/50/11 24/51/13

vt -0.389993 0
f 14/37/1 15/36/1 24/54/1

v 0.0614402 0.008 -0.080998
vt -0.634009 0.737492
f 24/54/1 15/36/1 25/55/1

vt -0.232704 0
vn -0.928148 0 -0.372211
v 0.0614402 0.016 -0.080998
vt -0.920487 0.0333333
vn -0.880513 0 -0.474021
vt -0.920487 0
f 15/56/14 26/57/15 25/58/15

vt -0.232704 0.0333333
f 26/57/15 15/56/14 22/59/14

vt 0.639089 0
vn 0.867795 0 -0.496922
vt -0.0486943 0.0333333
vn 0.928148 0 -0.372211
vt -0.0486943 0
f 16/60/16 22/61/17 15/62/17

vt 0.639089 0.0333333
f 22/61/17 16/60/16 21/63/16

vt 0.540552 0
vn 0.790785 0 -0.612093
vt 0.508517 0.0333333
vt 0.508517 0
f 17/64/18 21/65/16 16/66/16

vt 0.540552 0.0333333
f 21/65/16 17/64/18 20/67/18

vt 0.10485 0
vn 0.266821 0 -0.963746
vt 0.136497 0.0333333
vt 0.10485 0.0333333
f 17/68/19 19/69/12 20/70/19

vt 0.136497 0
f 19/69/12 17/68/19 18/71/12

vt 0.634009 0.737492
f 22/48/4 23/51/4 26/72/4

v 0.0122882 0.016 0.0929935
vt 0.42921 0.012527
f 26/72/4 23/51/4 27/73/4

vt 0.3715 0
vt 0.412669 0.0333333
vn 0.304287 0 0.95258
vt 0.3715 0.0333333
f 24/74/13 27/75/20 23/76/13

v 0.0122882 0.008 0.0929935
vt 0.412669 0
f 27/75/20 24/74/13 28/77/20

vt -0.42921 0.012527
f 24/54/1 25/55/1 28/78/1

v 0.0190851 0.008 0.0839741
vt -0.45753 0.050108
f 28/78/1 25/55/1 29/79/1

v 0.0836629 0.008 -0.0726323
vt -0.726604 0.702635
f 29/79/1 25/55/1 30/80/1

v 0.0656562 0.008 -0.0870778
vt -0.651576 0.762824
f 30/80/1 25/55/1 31/81/1

vt -0.967322 0
v 0.0656562 0.016 -0.0870778
vt -0.998149 0.0333333
vn -0.821754 0 -0.569842
vt -0.998149 0
f 25/82/15 32/83/21 31/84/21

vt -0.967322 0.0333333
f 32/83/21 25/82/15 26/85/15

v 0.0836629 0.016 -0.0726323
vt 0.726604 0.702635
vt 0.651576 0.762824
f 26/72/4 33/86/4 32/87/4

v 0.0190851 0.016 0.0839741
vt 0.45753 0.050108
f 26/72/4 34/88/4 33/86/4

f 26/72/4 27/73/4 34/88/4

vt 0.268315 0.0333333
vn 0.798626 0 0.601828
vt 0.315372 0
vn 0.868588 0 0.495535
vt 0.315372 0.0333333
f 27/89/22 29/90/23 34/91/23

vt 0.268315 0
f 29/90/23 27/89/22 28/92/22

vt 0.92657 0
vn 0.965543 0 0.260243
vt 0.220743 0.0333333
vt 0.220743 0
f 30/93/24 34/94/23 29/95/23

vt 0.92657 0.0333333
f 34/94/23 30/93/24 33/96/24

v 0.0844468 0.008 -0.078385
vt 0.818498 0
vn 0.990843 0 0.135021
vt 0.794307 0.0333333
vt 0.794307 0
f 35/97/25 33/98/24 30/99/24

v 0.0844468 0.016 -0.078385
vt 0.818498 0.0333333
f 33/98/24 35/97/25 36/100/25

v 0.0813102 0.008 -0.0857055
vt 0.413607 0
vn 0.919177 0 -0.393844
vt 0.380423 0.0333333
vt 0.380423 0
f 37/101/26 36/102/26 35/103/26

v 0.0813102 0.016 -0.0857055
vt 0.413607 0.0333333
f 36/102/26 37/101/26 38/104/26

vt -0.199812 0
vn 0.5356 0 -0.844472
v 0.0772909 0.016 -0.0882547
vt -0.179981 0.0333333
vn 0.348093 0 -0.93746
vt -0.199812 0.0333333
f 37/105/27 39/106/28 38/107/27

v 0.0772909 0.008 -0.0882547
vt -0.179981 0
f 39/106/28 37/105/27 40/108/28

vt -0.700054 0.767728
vt -0.716801 0.757106
f 30/80/1 40/109/1 37/110/1

v 0.0715063 0.008 -0.0891044
vt -0.675952 0.771268
f 30/80/1 41/111/1 40/109/1

f 30/80/1 31/81/1 41/111/1

vt -0.865378 0.0333333
vn -0.327333 0 -0.944909
vt -0.891175 0
vn -0.0936757 0 -0.995603
vt -0.865378 0
f 32/112/29 41/113/30 31/114/29

v 0.0715063 0.016 -0.0891044
vt -0.891175 0.0333333
f 41/113/30 32/112/29 42/115/30

vt 0.675952 0.771268
f 32/87/4 33/86/4 42/116/4

vt 0.700054 0.767728
f 42/116/4 33/86/4 39/117/4

vt 0.716801 0.757106
f 39/117/4 33/86/4 38/118/4

vt 0.72987 0.726604
f 38/118/4 33/86/4 36/119/4

vt -0.581042 0
vt -0.556681 0.0333333
vt -0.581042 0.0333333
f 40/120/28 42/121/30 39/122/28

vt -0.556681 0
f 42/121/30 40/120/28 41/123/30

vt -0.72987 0.726604
f 30/80/1 37/110/1 35/124/1

g Mesh2 Model

usemtl M_0097_DeepSkyBlue
v -0.0846411 0.008 -0.116498
vt 0.148328 0.0266667
vn -0.309017 0 -0.951057
v 0 0 -0.144
vt -0.148328 0
v -0.0846411 0 -0.116498
vt 0.148328 0
f 43/125/31 44/126/31 45/127/31

v 0 0.008 -0.144
vt -0.148328 0.0266667
f 44/126/31 43/125/31 46/128/31

vt -0.282137 0.388328
v -2.25597e-17 0.008 0.144
vt -7.51991e-17 -0.48
vt 0 0.48
f 43/129/4 47/130/4 46/131/4

v -0.0846411 0.008 0.116498
vt -0.282137 -0.388328
f 43/129/4 48/132/4 47/130/4

v -0.136952 0.008 -0.0444984
vt -0.456507 0.148328
f 49/133/4 48/132/4 43/129/4

v -0.136952 0.008 0.0444984
vt -0.456507 -0.148328
f 48/132/4 49/133/4 50/134/4

vn -1 0 -0
v -0.136952 0 0.0444984
f 49/128/32 51/127/32 50/125/32

v -0.136952 0 -0.0444984
f 51/127/32 49/128/32 52/126/32

vn -0.809017 0 -0.587785
f 43/128/33 52/127/33 49/125/33

f 52/127/33 43/128/33 45/126/33

vt 0.282137 0.388328
vt 0.456507 -0.148328
vt 0.456507 0.148328
f 45/135/1 51/136/1 52/137/1

v -0.0846411 0 0.116498
vt 0.282137 -0.388328
f 51/136/1 45/135/1 53/138/1

v -2.25597e-17 0 0.144
vt 7.51991e-17 -0.48
f 53/138/1 45/135/1 54/139/1

f 54/139/1 45/135/1 44/131/1

v 0.0846411 0 0.116498
f 54/139/1 44/131/1 55/132/1

v 0.0846411 0 -0.116498
f 55/132/1 44/131/1 56/129/1

vn 0.309017 0 -0.951057
f 46/125/34 56/126/34 44/127/34

v 0.0846411 0.008 -0.116498
f 56/126/34 46/125/34 57/128/34

v 0.0846411 0.008 0.116498
f 46/131/4 58/138/4 57/135/4

f 46/131/4 47/130/4 58/138/4

vn 0.309017 0 0.951057
f 54/126/35 58/125/35 47/128/35

f 58/125/35 54/126/35 55/127/35

v 0.136952 0 0.0444984
vn 0.809017 0 0.587785
f 59/127/36 58/128/36 55/126/36

v 0.136952 0.008 0.0444984
f 58/128/36 59/127/36 60/125/36

v 0.136952 0 -0.0444984
vn 1 0 -0
f 61/127/37 60/128/37 59/126/37

v 0.136952 0.008 -0.0444984
f 60/128/37 61/127/37 62/125/37

vn 0.809017 0 -0.587785
f 56/127/38 62/128/38 61/126/38

f 62/128/38 56/127/38 57/125/38

f 57/135/4 60/136/4 62/137/4

f 57/135/4 58/138/4 60/136/4

f 59/134/1 56/129/1 61/133/1

f 55/132/1 56/129/1 59/134/1

vn -0.309017 0 0.951057
f 47/125/39 53/126/39 54/127/39

f 53/126/39 47/125/39 48/128/39

vn -0.809017 0 0.587785
f 50/128/40 53/127/40 48/125/40

f 53/127/40 50/128/40 51/126/40

